<svg width="176" height="114" viewBox="0 0 176 114" fill="none" xmlns="http://www.w3.org/2000/svg">
<path d="M37.6575 30.3924C41.3839 30.7023 38.0363 21.2727 37.6121 19.5832C37.5332 19.2716 38.7528 18.9532 38.8288 19.2569C39.6343 22.4617 43.2397 31.4532 36.8776 30.9241C36.251 30.8716 37.3748 30.3689 37.6575 30.3924ZM31.8942 23.5498C31.8942 24.4317 31.8942 25.3124 31.8942 26.1935C31.8942 26.3674 33.1113 26.2002 33.1113 25.868C33.1113 24.9861 33.1113 24.1054 33.1113 23.2235C33.1117 23.0496 31.8942 23.2168 31.8942 23.5498ZM42.0046 24.5447C42.0046 23.6636 42.0046 22.7821 42.0046 21.9002C42.0046 21.7263 40.7875 21.8943 40.7875 22.2265C40.7875 23.1084 40.7875 23.9891 40.7875 24.871C40.7875 25.0462 42.0046 24.8778 42.0046 24.5447ZM36.4278 35.091C36.7331 35.1347 37.0783 34.9928 37.2178 34.7089C37.4441 34.2477 37.7457 33.8706 38.0997 33.5023C38.3059 33.2864 38.1862 32.9723 37.9317 32.874C37.6243 32.7551 37.2887 32.8774 37.0712 33.1046C36.655 33.5376 36.3131 34.0012 36.0473 34.5417C35.9091 34.821 36.1704 35.0541 36.4278 35.091ZM67.9861 77.5614C69.0604 82.0917 68.6833 87.7483 65.5213 91.4427C65.5591 91.6511 65.3512 91.8371 65.0912 91.9299C64.8477 92.1811 64.5906 92.4213 64.3168 92.6493C62.9423 93.7967 61.3837 94.6681 59.7274 95.2775C59.7354 95.2872 59.7446 95.2989 59.7517 95.3069C59.9995 95.5963 58.8421 96.0179 58.6124 95.75C58.5905 95.7243 58.5666 95.6958 58.5435 95.6689C55.4239 96.5614 52.0385 96.5588 48.9022 95.7092C49.4104 97.8083 52.1028 104.348 49.1613 104.667C48.9816 104.811 48.6296 104.967 48.4457 104.974C44.487 105.137 41.1235 107.799 37.3412 108.762C34.2423 109.552 30.7443 109.432 27.5983 109.054C23.827 108.602 20.1716 107.553 16.4078 107.047C12.3105 106.496 8.23976 106.439 4.13244 106.941C3.2778 107.045 3.82334 106.496 4.34327 106.433C4.5184 106.411 4.69352 106.393 4.86865 106.374C8.2574 105.99 11.6697 105.886 15.0676 106.251C19.0393 106.678 22.8669 107.775 26.8113 108.314C31.8925 109.007 36.6466 108.948 41.37 106.765C43.6547 105.709 45.9183 104.696 48.4327 104.476C48.2365 104.195 48.4743 103.72 48.9849 103.727C49.8551 103.741 47.7242 96.495 47.6158 95.6903C47.5978 95.5589 47.641 95.4434 47.7162 95.346C47.6998 95.3401 47.6826 95.3363 47.6662 95.3296C42.1444 93.3923 40.5045 87.0771 40.2638 81.759C39.2471 82.9912 38.2253 84.2222 37.169 85.4296C33.2923 89.8607 28.1334 95.3489 22.0602 96.4841C17.5963 97.3181 14.2571 95.4211 11.6503 92.3738C11.3782 94.0667 10.7995 95.5685 10.0494 96.9763C9.25273 98.4731 8.2637 99.8636 7.24317 101.26C6.08027 102.853 4.87831 104.456 3.87962 106.239C3.85316 106.286 3.80109 106.326 3.73599 106.361C3.39203 106.544 2.62726 106.566 2.6827 106.467C3.00482 105.893 3.34878 105.338 3.70533 104.796C4.1484 104.123 4.61079 103.47 5.07906 102.827C7.60098 99.3588 10.2552 96.1632 10.574 91.4755C10.5798 91.3945 10.6559 91.3256 10.7684 91.2697C7.6266 87.0305 5.62544 81.1887 3.94387 77.0982C3.88886 76.9647 3.9401 76.8416 4.04509 76.7429C3.82796 76.7165 3.6121 76.6887 3.39455 76.656C3.08923 76.7396 2.74612 76.6955 2.67262 76.4376C0.50893 68.8512 -1.30366 59.6912 4.00057 52.9331C8.86845 46.7301 17.5514 45.445 22.3932 39.1996C22.3844 39.161 22.373 39.124 22.3646 39.0858C22.3369 38.9644 22.4323 38.851 22.5805 38.7633C22.8585 37.8242 22.8963 36.7831 22.8673 35.797C17.8101 39.4029 8.48796 37.4277 9.64708 29.9502C6.47798 30.316 3.73389 28.686 3.79772 25.094C3.85274 22.0224 5.52128 19.3014 8.4531 18.3892C10.9465 12.959 11.7066 6.20668 17.5266 3.08587C22.2332 0.561847 28.6298 -0.396949 33.2079 2.86917C33.2957 2.82255 33.3969 2.78979 33.5119 2.78307C37.1909 2.54831 41.2003 3.93127 43.4228 7.02058C44.7054 8.80293 45.2556 10.723 45.2132 12.66C45.3879 13.9971 45.366 14.9576 45.366 14.9576C45.366 14.9576 44.474 20.4954 46.1598 22.6868C47.846 24.8794 48.394 25.8143 48.2248 29.0061C48.0959 31.4293 45.5336 32.7963 44.3077 33.315C43.0344 37.34 39.7657 39.2479 35.9532 39.9534C35.9201 40.3012 35.9037 40.6514 35.9121 41.0051C35.9192 41.0118 35.928 41.0156 35.9335 41.0231C39.1093 45.2262 46.0712 43.6866 48.9837 47.9862C49.8979 47.7494 50.8656 48.1706 51.6463 49.1722C51.6627 49.1937 51.6727 49.2151 51.682 49.2361C54.0674 47.4445 59.7009 46.3866 58.5565 50.0554C60.0764 49.9916 64.0459 49.9265 62.7986 52.2242C61.595 54.442 59.2112 55.9447 57.6036 57.853C57.583 57.8778 57.5544 57.8997 57.5217 57.9211C57.9706 58.5389 57.9219 59.3969 57.6489 60.2523C57.6027 60.3976 57.4293 60.5115 57.2273 60.582C57.6628 61.0339 57.8858 61.5769 57.8963 62.2695C57.8997 62.5063 57.7019 62.6714 57.4641 62.7436C57.5494 62.7701 57.6158 62.8158 57.6481 62.8889C57.8871 63.4319 57.8858 64.0413 57.8862 64.6238C57.8862 64.7779 57.7418 64.9035 57.5544 64.9904C57.5687 65.0009 57.5851 65.011 57.5981 65.024C57.7048 65.1299 57.7959 65.2332 57.877 65.3348C63.0548 67.3314 66.7224 72.2308 67.9861 77.5614ZM49.4372 48.78C49.4738 48.8547 49.5133 48.927 49.5477 49.0047C49.6397 49.2138 48.7796 49.5385 48.4465 49.4238C48.428 49.4591 48.4096 49.491 48.3919 49.5296C48.0232 50.3301 47.7338 51.3359 47.888 52.2267C48.1769 53.8944 49.0471 55.3378 49.5477 56.9384C49.5628 56.9858 49.559 57.0337 49.5452 57.0778C50.5804 56.4575 51.85 56.0787 52.8453 56.8909C52.8768 56.9165 52.8747 56.9501 52.8529 56.9871C54.0981 56.9724 55.4689 56.8132 56.6494 57.2794C56.7296 57.3113 56.8056 57.3457 56.8775 57.3835C58.2281 55.9035 59.8382 54.6541 61.0772 53.0817C61.3846 52.6912 62.2002 51.7332 61.6416 51.233C60.863 50.5367 59.4036 50.6341 58.2999 50.7114C58.0731 51.065 56.94 51.1734 57.184 50.6342C57.8287 49.21 57.46 48.0144 55.7196 48.2399C54.4786 48.3999 52.9285 48.9051 52.1284 49.9336C51.8752 50.2591 50.6434 50.3372 50.9907 49.89C51.0243 49.8463 51.0642 49.8047 51.102 49.761C50.8656 49.8127 50.6253 49.7955 50.5199 49.6602C50.1764 49.2205 49.8014 48.8703 49.4372 48.78ZM48.7489 57.63C48.8249 57.57 48.9022 57.5112 48.9837 57.452C48.9228 57.465 48.8631 57.4751 48.8035 57.4784C48.5818 57.4914 48.3827 57.4335 48.3302 57.2651C48.1253 56.6078 47.8451 55.9329 47.5713 55.2496C47.2702 54.4949 46.9821 53.7281 46.8082 52.9612C46.5184 51.6807 46.5541 50.3973 47.4357 49.16C47.5944 48.9379 47.762 48.7477 47.9358 48.586C45.4946 44.5824 39.6448 45.3942 36.0872 42.7278C36.2178 43.5161 36.4034 44.2943 36.6042 45.0385C36.6785 45.3123 36.3938 45.5315 36.0796 45.6075C35.9906 45.6289 35.8995 45.6386 35.813 45.6352C35.2481 45.9053 34.6807 46.1207 34.1138 46.2874C29.2345 47.7124 24.4574 45.3425 22.7166 40.3159C18.0906 45.5042 10.723 46.9141 6.04751 52.0054C-0.073989 58.6711 1.58574 67.9777 3.83426 75.9143C3.88004 75.9093 3.92498 75.9076 3.96403 75.9135C9.34512 76.7551 14.4856 75.5443 19.4454 73.5091C18.6899 69.9281 17.86 66.2138 16.3301 62.8843C16.22 62.6466 17.3997 62.2371 17.5467 62.5588C19.1166 65.9761 19.9511 69.7991 20.723 73.4667C20.7297 73.4978 20.7205 73.528 20.7053 73.5587C20.7247 73.675 20.6352 73.809 20.3652 73.922C20.1065 74.0303 19.8473 74.1353 19.587 74.2395C19.7008 74.3067 19.7772 74.4184 19.7785 74.5801C19.7856 75.7917 20.0435 77.0852 20.5962 78.1696C28.2388 72.2291 37.7104 68.976 44.9742 62.4979C45.3249 61.8251 45.7255 61.146 46.1728 60.4917C44.9729 59.2406 43.8012 57.9769 42.8492 56.5222C42.7152 56.3172 43.8457 55.8586 44.0662 56.1958C44.8688 57.423 45.8435 58.5074 46.8502 59.5674C47.4058 58.8652 48.0152 58.2172 48.6784 57.6842C48.7027 57.6653 48.7262 57.6473 48.7489 57.63ZM22.6439 35.1985C22.3663 35.4421 22.074 35.684 21.7742 35.9104C22.0795 35.7029 22.3697 35.464 22.6439 35.1985ZM24.0361 34.7702C24.0492 34.784 24.0588 34.8004 24.0597 34.8201C24.1277 36.1603 24.1411 37.7116 23.6397 38.9846C24.9857 44.3497 30.0358 47.8489 35.343 45.1922C34.9142 43.577 34.5686 41.8143 34.716 40.1387C33.9139 40.2332 33.0978 40.2873 32.2764 40.2961C31.4537 40.3058 32.2268 39.5364 32.7291 39.531C33.5098 39.5221 34.3258 39.4835 35.141 39.3915C35.309 39.3252 35.5009 39.2987 35.6597 39.326C37.8578 39.011 40.0081 38.2572 41.4591 36.537C42.8353 34.9037 43.4468 32.8123 43.5959 30.7074C43.8915 26.519 42.8256 22.4646 42.383 18.3321C42.3805 18.3287 42.3779 18.3254 42.3759 18.3224C41.8605 18.1927 41.3154 18.0683 40.7485 17.9428C40.1072 17.8978 39.2823 17.8403 38.2198 17.7664C36.566 17.6517 34.9957 16.8996 33.6488 15.9668C32.2705 15.3877 31.0148 14.6485 30.0274 13.6612C29.9678 16.2965 29.4319 19.0452 28.5517 21.4281C27.7508 23.5968 26.5476 25.8378 23.9967 26.0041C23.7732 26.018 23.6838 25.9802 23.6741 25.918C23.6741 25.918 23.6733 25.918 23.6729 25.9172C23.6376 25.8958 23.6036 25.8794 23.5687 25.8613C22.843 26.0419 21.9749 26.3414 21.1535 27.2682C20.8376 28.0254 20.6759 28.8889 20.673 29.4789C20.668 30.5331 20.9556 31.4213 21.4873 32.0555C22.2954 32.5548 23.2285 32.903 23.8539 33.1012C24.1113 33.1054 24.3809 33.089 24.6648 33.0437C25.0025 32.9903 25.1188 33.0487 25.1071 33.1419C25.1491 33.1524 25.1701 33.1684 25.1596 33.1886C24.8572 33.7769 24.4737 34.3019 24.0361 34.7702ZM35.9007 85.6131C40.7829 80.0943 45.0359 73.7662 50.8735 69.4287C50.9676 69.359 51.0839 69.3195 51.2036 69.3031C51.2456 69.2893 51.2876 69.2767 51.3334 69.2687C52.1204 69.1335 53.76 68.7412 54.7822 68.3469C56.0552 67.8555 57.9341 66.982 56.4785 65.5423C56.2912 65.3571 56.444 65.1534 56.6964 65.0257C56.6796 65.0035 56.6683 64.9808 56.6683 64.9501C56.6683 64.3668 56.6691 63.7574 56.4302 63.2144C56.3491 63.0304 56.6603 62.8339 56.9908 62.7549C56.8044 62.7016 56.6616 62.571 56.6582 62.3455C56.6494 61.7122 56.3638 61.2997 55.8594 60.9386C55.3727 60.59 56.0081 60.0823 56.5096 60.1133C56.7809 59.0529 56.6322 58.0488 55.3576 57.8001C54.3475 57.6023 53.3022 57.7035 52.2809 57.7081C51.8769 57.7107 51.8685 57.5376 52.0192 57.3613C51.8853 57.376 51.7689 57.3655 51.703 57.3121C50.1184 56.019 47.6608 59.6711 46.4924 61.7235C46.7809 61.7898 46.9539 61.9721 46.6701 62.238C38.56 69.8508 27.4992 73.1089 19.2501 80.5164C18.7974 80.9233 17.8302 80.5155 18.4438 79.9645C18.8327 79.616 19.2287 79.2787 19.629 78.9482C19.6025 78.9226 19.5794 78.894 19.5609 78.8596C18.8827 77.6127 18.5711 76.1709 18.5496 74.7527C18.5492 74.7233 18.5467 74.6926 18.5467 74.6632C18.5467 74.6565 18.5492 74.651 18.5492 74.6435C18.2918 74.7401 18.0331 74.8337 17.7735 74.9257C15.8618 75.6056 13.9287 76.1487 11.967 76.4964C10.9797 76.6711 9.98474 76.7942 8.98353 76.8647C7.73411 76.9533 6.47294 76.955 5.19917 76.858C8.21792 84.2281 13.3071 99.8627 24.1793 94.9562C26.401 93.9538 28.3912 92.656 30.2299 91.1668C32.2726 89.5117 34.1293 87.6168 35.9007 85.6131ZM62.1674 93.5296C61.2989 93.2482 60.2687 93.0449 59.367 93.2276C58.5326 93.3965 59.0609 94.3645 59.4708 94.9428C60.4287 94.5778 61.3367 94.107 62.1674 93.5296ZM64.2358 91.6742C64.1396 91.5364 64.0535 91.3961 63.9804 91.2508C63.7965 91.3067 63.5995 91.3411 63.445 91.2949C63.0132 91.1651 62.6004 91.2055 62.1876 91.313C62.2531 91.9832 62.5996 92.3457 63.0754 92.8278C63.4886 92.4738 63.8779 92.0908 64.2358 91.6742ZM66.1949 88.3471C65.1127 88.6663 64.7351 89.6201 65.0602 90.5684C65.1643 90.4075 65.2655 90.245 65.3617 90.0778C65.68 89.5184 65.9551 88.9401 66.1949 88.3471ZM58.3075 66.457C58.2289 68.464 53.4047 69.6765 51.5426 70.0364C47.6314 72.9712 44.5177 76.6098 41.4511 80.3215C41.5023 85.2284 42.5443 91.5473 47.2715 94.1747C50.4788 95.957 54.6247 96.3572 58.2713 95.3371C57.9303 94.8991 57.6078 94.3603 57.7392 93.845C57.8774 93.3053 58.4137 93.0139 58.9042 92.8442C59.6749 92.5767 60.5253 92.5334 61.3632 92.6212C61.1246 92.3104 60.968 91.9715 60.9541 91.4759C60.9495 91.3193 61.246 91.2231 61.3556 91.187C62.1044 90.9329 62.9532 90.6826 63.7679 90.725C63.6008 90.14 63.6402 89.5264 63.9897 88.9263C64.5159 88.0242 65.5457 87.6017 66.528 87.4278C69.0394 79.8075 65.4688 70.1876 58.3075 66.457ZM103.434 53.1527C103.698 53.3127 104.06 53.214 104.302 53.0624C105.048 52.595 106.091 53.1716 106.634 53.7029C106.991 54.0523 108.145 53.5731 107.755 53.1918C106.626 52.086 104.896 51.7219 103.516 52.5874C103.318 52.7126 103.185 53.0036 103.434 53.1527ZM29.4596 19.9775C29.7246 20.0292 30.0736 19.9355 30.3084 19.8175C30.8229 19.5584 31.3831 19.4164 31.8967 19.1565C31.9803 19.1136 32.3264 18.9129 32.0513 18.8596C31.7863 18.8079 31.4369 18.9016 31.2021 19.0204C30.6885 19.2804 30.1282 19.4223 29.6142 19.6814C29.5306 19.7243 29.1846 19.9242 29.4596 19.9775ZM107.13 50.6119C107.359 50.7454 107.69 50.6627 107.922 50.5733C107.982 50.5502 108.489 50.3011 108.27 50.1739C107.361 49.6447 106.597 48.8573 106.104 47.9279C105.92 47.5818 104.756 48.0068 104.887 48.2542C105.402 49.2239 106.179 50.0579 107.13 50.6119ZM102.761 63.0863C103.649 63.0976 104.488 63.316 105.132 63.9527C105.39 64.2076 106.524 63.7616 106.271 63.5105C105.466 62.7142 104.357 62.5219 103.266 62.5072C103.003 62.503 102.634 62.6122 102.456 62.8154C102.265 63.0355 102.62 63.0838 102.761 63.0863ZM174.946 111.213C174.926 111.329 174.818 111.428 174.675 111.502C174.565 111.582 174.423 111.644 174.264 111.658C171.715 111.889 169.103 111.805 166.547 111.855C161.481 111.954 156.415 112.042 151.348 112.127C151.164 112.13 150.978 112.134 150.793 112.137C143.528 112.259 136.264 112.375 128.999 112.487C129.001 112.592 129.007 112.696 129.007 112.802C129.008 112.854 128.979 112.901 128.934 112.946C128.674 113.199 127.791 113.304 127.79 113.129C127.771 110.852 127.501 108.642 126.579 106.569C125.444 107.301 124.273 107.957 123.061 108.513C122.939 108.63 122.713 108.726 122.492 108.764C121.522 109.179 120.528 109.536 119.505 109.813C117.788 110.278 116.033 110.585 114.266 110.74C114.056 110.949 113.363 111.179 113.154 111C113.099 110.953 113.044 110.902 112.989 110.852C112.98 110.843 112.969 110.834 112.959 110.825C112.663 110.838 112.367 110.848 112.071 110.852C105.61 110.957 99.1282 109.044 93.8559 105.272C93.7043 105.322 93.543 105.332 93.4078 105.277C92.9857 105.101 92.6329 104.879 92.3352 104.622C92.2928 104.636 92.2491 104.648 92.2033 104.654C88.7575 105.157 87.1767 102.119 85.0508 100.033C84.7707 100.036 84.5032 99.9077 84.4809 99.6057C84.4137 98.7166 84.4872 97.7595 84.6766 96.7768C84.512 96.8054 84.3658 96.8016 84.2906 96.7373C81.0972 94 72.5928 91.2071 75.1525 85.6072C75.2121 85.4766 75.4406 85.3842 75.6829 85.3326C74.5217 83.5477 73.8048 81.4617 74.7208 79.5177C74.7644 79.4257 74.8518 79.3518 74.958 79.2963C74.4604 77.9323 74.6536 76.6984 76.4594 76.0794C76.5296 76.0546 76.5926 76.0432 76.6531 76.0365C76.6069 75.5166 76.6484 74.9963 76.8026 74.4873C76.8996 74.1656 77.5106 74.0442 77.7882 74.0958C78.7378 74.2739 79.6508 74.6355 80.5172 75.1189C80.4987 74.5284 80.5949 73.932 80.8729 73.4478C81.2375 72.8128 81.8061 72.5995 82.3966 72.6516C82.3176 71.8175 83.0526 71.2808 83.8325 71.062C84.8958 70.7642 85.8466 71.3244 86.6479 71.9947C87.125 72.3924 87.5878 72.8242 88.0095 73.2899C88.6348 72.295 89.5529 71.938 90.7826 73.3663C91.2937 73.9602 91.7632 74.6435 92.3251 75.1865C93.0651 75.9017 93.9714 76.3973 94.7664 77.0436C95.154 77.3586 95.4455 77.7172 95.6807 78.1024C95.6324 77.5413 95.6798 76.9878 95.8247 76.4666C95.779 75.5674 95.8995 74.6489 96.1053 73.7628C97.167 69.2015 99.7326 65.0165 100.3 60.3393C98.2198 59.333 98.1711 57.4167 98.8027 55.3878C99.8758 51.9394 101.696 48.7233 101.802 45.0364C101.806 44.8885 101.89 44.7688 102.013 44.6819C101.448 44.5286 100.859 44.4203 100.239 44.3711C100.185 44.3669 100.027 44.3472 100.019 44.2628C99.9115 43.1998 100.184 42.3515 100.713 41.6044C101.019 41.1739 101.408 40.7749 101.864 40.3902C101.879 40.3772 101.898 40.3646 101.92 40.3524C101.876 40.3318 101.84 40.3041 101.82 40.2672C101.798 40.2277 101.793 40.1786 101.81 40.1185C102.555 37.3878 104.713 36.7251 107.006 37.1338C107.035 37.1035 107.07 37.0724 107.112 37.0384C113.406 32.1529 124.35 28.7175 130.755 35.4396C133.636 38.4621 137.59 42.8802 135.88 47.4579C135.013 49.7799 133.594 51.766 132.107 53.7138C133.892 52.4997 135.883 51.6303 137.88 51.9117C139.797 52.1809 141.251 53.6038 141.193 55.6217C141.156 56.9056 140.705 58.2293 140.079 59.5191C151.026 59.1113 160.223 67.4649 165.934 76.089C166.058 76.2751 166.179 76.4653 166.301 76.6543C166.481 76.6493 166.608 76.6665 166.587 76.7018C166.545 76.769 166.5 76.829 166.456 76.8928C172.84 86.8583 176.976 99.3474 174.946 111.213ZM174.07 101.507C173.828 98.8309 173.331 96.1615 172.625 93.5409C172.586 93.3965 172.545 93.252 172.505 93.1079C172.303 93.1873 172.091 93.2507 172.006 93.2516C171.787 93.2533 171.567 93.2591 171.349 93.2621C171.369 93.3557 171.393 93.4481 171.42 93.5409C171.519 93.8887 171.661 94.2318 171.82 94.572C172.016 94.9936 170.82 95.3653 170.603 94.8983C170.396 94.4535 170.222 94.0016 170.124 93.5409C170.107 93.4565 170.095 93.3704 170.081 93.2852C169.841 93.2919 169.601 93.299 169.36 93.3066C169.377 93.3855 169.395 93.4632 169.413 93.5422C169.467 93.7816 169.523 94.0222 169.579 94.2616C169.704 94.784 168.486 95.104 168.363 94.5879C168.279 94.2385 168.2 93.8908 168.127 93.5422C168.114 93.4758 168.103 93.4103 168.09 93.3435C167.489 93.3624 166.889 93.3771 166.288 93.3885C166.287 93.4393 166.286 93.4901 166.285 93.5409C166.264 94.8256 166.329 96.1036 166.423 97.3807C166.698 97.3412 166.971 97.2871 167.24 97.2144C167.975 97.0132 168.148 97.6663 167.415 97.8675C167.105 97.9519 166.791 98.0161 166.476 98.0653C166.563 99.161 166.659 100.257 166.727 101.356C167.82 101.319 168.912 101.335 170.005 101.37C170.005 101.134 170.005 100.9 170.005 100.664C170.005 100.312 171.221 100.134 171.221 100.338C171.221 100.697 171.221 101.056 171.221 101.415C172.17 101.451 173.12 101.488 174.07 101.507ZM129.711 56.8833C128.996 57.8858 128.329 58.9185 127.773 60.0201C127.772 60.0218 127.769 60.0243 127.768 60.026C128.774 61.7155 128.635 63.0225 126.908 63.5546C126.91 63.5596 126.914 63.563 126.915 63.5676C127.669 67.058 124.208 66.9013 121.682 66.5863C121.168 68.1113 120.493 69.658 119.671 71.1569C119.832 72.5432 119.865 75.3851 117.607 76.1957C116.51 76.5888 115.814 76.8387 115.369 76.9978C115.096 77.2742 114.817 77.5451 114.531 77.8042C114.423 78.6194 114.105 80.1623 113.202 80.7654C112.591 81.174 111.794 81.3181 111.138 81.3609C110.125 83.9076 110.641 86.595 111.569 89.1862C111.604 89.1829 111.638 89.1812 111.674 89.1778C112.48 89.1123 113.353 89.0342 114.075 89.3681C118.18 84.6854 122.724 76.4082 128.96 74.0908C128.871 73.9946 128.869 73.8569 129.033 73.683C131.258 71.3119 133.155 68.585 134.93 65.8686C136.546 63.3954 138.272 60.8185 139.339 58.0466C139.962 56.4306 140.489 54.0888 138.51 53.1002C135.564 51.6274 131.867 54.8486 129.711 56.8833ZM103.013 66.2239C102.454 65.7729 101.866 65.4407 101.25 65.465C101.703 65.5734 102.279 65.7972 103.013 66.2239ZM101.091 86.9705C101.258 85.6623 101.625 84.4473 102.187 83.3071C101.312 83.5154 100.192 83.559 99.0287 82.9971C98.3021 82.646 97.6726 82.1341 97.1577 81.5331C96.5034 82.7338 96.4106 84.3066 96.5437 85.6354C96.6781 85.6568 96.8133 85.6749 96.949 85.7034C97.1409 85.7463 97.2522 85.8282 97.3043 85.9273C98.636 86.0226 99.8997 86.3909 101.091 86.9705ZM110.263 89.2614C109.362 86.6563 108.917 83.937 109.885 81.3794C109.711 81.6074 108.773 82.7607 107.195 83.2063C105.44 83.701 103.91 82.583 103.91 82.583C103.91 82.583 103.78 82.6717 103.557 82.7913C102.819 84.1588 102.364 85.6329 102.239 87.2493C102.231 87.343 102.158 87.4224 102.053 87.487C102.066 87.4954 102.08 87.5017 102.094 87.511C102.13 87.5324 102.126 87.566 102.098 87.6038C102.249 87.6323 102.343 87.6899 102.387 87.7646C105.029 89.0212 107.504 89.361 110.263 89.2614ZM102.262 43.9734C103.359 44.1964 104.443 44.5395 105.407 45.1233C107.794 46.5684 109.598 48.7061 111.157 50.9907C113.088 53.8188 114.618 57.019 116.777 59.6774C118.523 61.8281 120.478 63.7473 122.099 66.0089C122.108 66.0211 122.111 66.0345 122.115 66.0467C122.868 66.1655 123.644 66.3205 124.404 66.3213C124.546 66.3213 124.688 66.3163 124.828 66.305C125.59 66.2403 125.812 65.6464 125.825 64.9984C125.832 64.6171 125.767 64.2177 125.698 63.8952C125.688 63.8502 125.711 63.8057 125.754 63.7633C125.149 63.7503 125.548 63.1497 126.092 63.0867C126.737 63.0094 127.076 62.7759 127.203 62.4421C127.284 62.2254 127.277 61.9679 127.202 61.6823C126.801 60.1478 124.479 57.8337 123.949 57.1143C121.916 54.358 120.105 51.5048 118.829 48.3155C118.676 47.9316 119.877 47.565 120.047 47.9892C121.107 50.6459 122.532 53.1174 124.203 55.4369C125.111 56.6977 126.195 57.8274 127.12 59.0726C127.443 58.5149 127.792 57.9753 128.16 57.4461C128.018 57.3533 127.984 57.2054 128.187 57.0118C128.473 56.7389 128.779 56.4491 129.1 56.1538C130.818 53.8852 132.717 51.7366 133.97 49.1802C136.189 44.65 134.001 40.6808 130.865 37.2602C127.794 33.9092 123.87 32.0122 119.234 32.5569C118.462 32.6481 117.703 32.7841 116.956 32.9614C116.882 32.9786 116.808 32.9983 116.734 33.0172C113.547 33.8105 110.609 35.3535 107.985 37.3702C110.039 37.9888 112.056 39.3462 113.133 40.7413C113.451 41.1525 112.278 41.5821 112.006 41.2302C110.169 38.8506 104.257 35.4711 103.026 39.9799C103.004 40.0601 102.944 40.1315 102.862 40.1924C103.002 40.2054 103.069 40.2491 102.971 40.3318C101.933 41.2092 99.9929 43.511 102.262 43.9734ZM100.992 59.4897C101.069 59.5266 101.124 59.569 101.166 59.6144C101.387 59.6068 101.564 59.6644 101.548 59.8219C101.375 61.5446 100.911 63.1963 100.344 64.822C102.605 63.8057 104.078 66.2428 106.12 67.4338C109.494 69.4027 110.775 65.124 111.041 62.6617C111.247 60.7487 111.581 59.0369 112.925 57.5868C113.098 57.4007 113.505 57.3398 113.779 57.4028L113.787 57.389C113.217 56.4785 112.665 55.5537 112.094 54.6386C109.786 50.9407 107.151 46.6566 103.03 45.0233C102.937 47.7095 101.976 50.2007 101.008 52.6782C100.251 54.6088 98.3639 58.2197 100.992 59.4897ZM88.7411 74.2109C88.7449 74.2168 88.7491 74.2206 88.752 74.2264C88.8746 74.4108 88.7785 74.588 88.5979 74.7136C88.568 74.8283 88.5378 74.9433 88.5097 75.0597C88.4702 75.2197 88.3333 75.3444 88.1653 75.4263C88.314 75.8152 88.408 76.2318 88.5235 76.6362C88.8633 77.8239 89.762 78.5975 90.4306 79.6164C91.7178 81.5776 91.99 83.995 92.2172 86.2842C93.1932 85.834 94.2255 85.5724 95.2939 85.5493C95.2149 84.2344 95.388 82.8804 95.9763 81.7662C95.8268 81.7309 95.7008 81.6482 95.6462 81.4995C95.2023 80.298 95.028 78.9142 94.065 77.9823C93.294 77.2368 92.3033 76.7832 91.536 76.0407C90.856 75.3839 90.3021 74.6078 89.6684 73.9064C89.3904 73.599 89.1501 73.1345 89.0073 73.4726C88.9032 73.7154 88.8175 73.9615 88.7411 74.2109ZM84.0286 73.2265C84.4095 73.712 84.8551 74.1328 85.3183 74.5381C85.3481 74.5645 85.3666 74.5914 85.3801 74.6183C85.9693 74.2869 86.8407 74.1038 87.3682 74.3592C86.6227 73.3307 85.4632 72.0913 84.307 71.7957C83.2424 71.5235 83.7207 72.8343 84.0286 73.2265ZM81.9338 76.0433C82.8602 76.7387 83.7136 77.5581 84.4746 78.4211C84.3011 77.2456 84.2604 75.9979 84.8185 75.1214C84.5838 75.1781 84.3368 75.1697 84.1974 75.0483C83.8509 74.7455 83.4368 74.3961 83.0904 74.0043C82.9837 73.9984 82.8825 73.9724 82.7997 73.9123C82.6691 73.8187 82.1954 73.5096 82.116 73.5532C81.9905 73.6221 81.8846 73.914 81.8502 74.0757C81.7108 74.7245 81.7393 75.3969 81.9321 76.0328C81.9333 76.0357 81.9329 76.0391 81.9338 76.0433ZM84.8765 95.8793C85.7807 92.4318 88.0683 88.8465 91.032 86.9369C90.8535 85.11 90.712 83.166 89.9817 81.4651C89.5466 80.4521 89.0002 79.4832 88.2447 78.6706C87.9204 78.3212 87.6588 78.0692 87.5072 77.6156C87.3216 77.0596 87.2162 76.4729 87.0129 75.9236C86.7319 75.1617 85.7958 74.7334 85.6925 75.8702C85.569 77.2435 85.7887 78.6172 86.0293 79.9666C86.047 80.0657 85.9928 80.1569 85.9008 80.235C85.9663 80.3286 86.0339 80.421 86.0978 80.5138C86.351 80.8838 85.1701 81.2752 84.9626 80.9716C83.945 79.4837 82.5822 77.8701 80.9998 76.64C80.9006 76.6073 80.815 76.5489 80.7595 76.4611C79.8591 75.7925 78.8936 75.2545 77.8815 74.932C77.501 77.9743 80.8582 81.2265 83.1429 82.6754C83.428 82.8569 82.3474 83.3495 82.0077 83.1332C80.0729 81.906 77.4355 79.4085 76.7837 76.8105C76.7471 76.8286 76.7081 76.845 76.6656 76.8597C74.0282 77.7643 78.8793 82.919 79.7218 83.9442C80.0972 84.4003 78.9343 84.8677 78.6038 84.4649C77.9054 83.6153 76.493 82.1017 75.5762 80.568C75.1458 83.0269 77.212 85.6514 78.8041 87.296C79.1972 87.7021 78.0411 88.1808 77.6853 87.8134C77.1671 87.2779 76.6241 86.6568 76.1264 85.9819C74.5582 90.7733 81.5512 93.4263 84.8765 95.8793ZM91.6708 103.858C90.1303 101.438 91.6355 97.2854 92.8245 95.0171C94.1281 92.5309 96.3199 89.2467 99.1732 88.0343C99.5784 87.8621 99.9963 87.7306 100.427 87.6504C100.431 87.6504 100.434 87.6496 100.437 87.6487C99.3714 87.073 98.2484 86.6815 97.0582 86.5198C96.9129 86.6181 96.7277 86.6723 96.5383 86.6316C90.4285 85.3087 85.5228 93.8857 85.7005 99.1963C85.8 99.2118 85.8891 99.2454 85.9542 99.3063C87.6832 100.916 89.1069 103.775 91.6708 103.858ZM121.828 108.387C121.653 107.968 121.458 107.558 121.245 107.159C121.062 107.211 120.868 107.232 120.7 107.165C120.438 107.059 120.671 106.818 120.821 106.739C120.87 106.712 120.919 106.687 120.969 106.661C120.698 106.18 120.417 105.703 120.139 105.224C119.998 105.327 119.861 105.435 119.727 105.548C119.474 105.766 118.262 105.858 118.771 105.422C119.102 105.137 119.459 104.894 119.826 104.666C119.561 104.191 119.314 103.706 119.097 103.205C118.284 103.553 117.444 103.814 116.596 104.047C116.742 104.366 116.885 104.686 117.022 105.01C117.148 105.314 115.956 105.698 115.804 105.336C115.668 105.011 115.524 104.688 115.377 104.367C114.811 104.513 114.246 104.657 113.685 104.819C113.904 105.321 114.18 105.791 114.587 106.174C114.943 106.508 113.794 106.977 113.461 106.664C113.022 106.253 112.726 105.745 112.49 105.201C112.385 105.239 112.28 105.276 112.175 105.315C111.999 105.382 111.823 105.452 111.649 105.526C111.652 105.591 111.658 105.656 111.663 105.72C111.797 107.325 112.645 108.909 113.773 110.073C113.867 110.169 113.962 110.262 114.059 110.353C114.119 110.348 114.178 110.345 114.238 110.341C116.339 110.176 118.399 109.742 120.347 109.003C120.849 108.814 121.342 108.607 121.828 108.387ZM166.675 111.11C169.03 111.064 171.433 111.131 173.789 110.963C174.026 109.474 174.166 107.972 174.215 106.462C174.261 105.072 174.232 103.678 174.132 102.284C174.106 102.284 174.081 102.283 174.055 102.283C173.11 102.271 172.166 102.233 171.221 102.194C171.221 102.665 171.221 103.137 171.221 103.608C171.221 103.961 170.005 104.138 170.005 103.935C170.005 103.338 170.005 102.74 170.005 102.144C168.741 102.097 167.476 102.068 166.212 102.126C166.046 102.134 165.929 102.11 165.849 102.065C165.669 102.065 165.532 102.018 165.526 101.908C165.453 100.663 165.341 99.423 165.243 98.182C164.668 98.2123 164.089 98.2139 163.514 98.2139C163.305 98.2139 163.021 98.0678 163.175 97.8259C163.337 97.5722 163.697 97.4853 163.976 97.4853C164.38 97.4853 164.785 97.4878 165.19 97.4756C165.094 96.1204 165.03 94.7647 165.076 93.4015C164.922 93.3893 164.968 93.3242 165.102 93.2465C165.253 92.9152 166.102 92.7636 166.266 92.9412C166.847 92.9345 167.429 92.9248 168.009 92.9084C167.871 92.1433 167.773 91.373 167.76 90.5839C167.753 90.0925 168.978 89.8729 168.987 90.4705C169 91.2844 169.113 92.0807 169.271 92.8715C169.529 92.8631 169.788 92.8568 170.048 92.8492C170.045 92.5679 170.074 92.2831 170.153 91.9946C170.279 91.536 171.513 91.3663 171.376 91.864C171.286 92.1895 171.266 92.5053 171.288 92.8156C171.665 92.8068 172.043 92.8009 172.42 92.7976C171.779 90.5507 170.984 88.3442 170.065 86.2061C168.801 83.2705 167.301 80.4626 165.635 77.8508C165.61 77.8731 165.586 77.8936 165.561 77.9146C164.091 79.2338 162.081 79.7004 160.207 80.4559C159.944 80.5626 158.781 80.6411 159.519 80.3433C161.569 79.5164 163.809 79.1006 165.164 77.2544C165.179 77.2339 165.192 77.2116 165.208 77.1914C164.916 76.7475 164.617 76.3024 164.307 75.8568C159.825 69.4186 153.464 63.0388 145.836 60.9264C145.015 60.6992 144.18 60.5194 143.33 60.3972C142.152 60.2267 140.948 60.1641 139.718 60.2183C138.878 61.7882 137.834 63.2828 137.023 64.5583C136.634 65.171 136.239 65.7838 135.84 66.3957C134.835 67.9361 133.79 69.461 132.67 70.9225C131.941 71.8734 131.178 72.7943 130.374 73.6746C132.048 73.3176 133.842 73.4046 135.775 74.0988C136.509 74.3621 135.627 75.147 135.081 74.9501C130.925 73.4579 127.394 75.3037 124.309 78.2813C122.539 79.9889 120.915 82.0686 119.404 84.1042C118.404 85.4527 117.453 86.7815 116.543 87.9708C116.557 87.9864 116.568 88.0053 116.573 88.0259C117.066 89.8951 118.2 91.575 119.819 92.6455C120.052 92.798 118.99 93.2877 118.678 93.0819C117.265 92.1475 116.202 90.7317 115.612 89.1489C115.288 89.5441 114.969 89.9149 114.654 90.2555C114.38 90.5516 113.729 90.5205 113.544 90.2794C113.446 90.1833 113.332 90.1064 113.206 90.0417C112.781 89.8229 112.213 89.7654 111.599 89.7868C111.528 89.8805 111.418 89.9531 111.292 90.0018C111.078 90.082 110.822 90.0896 110.639 89.988C110.59 89.9611 110.548 89.925 110.512 89.8813C110.283 89.9099 110.058 89.9405 109.838 89.9707C109.272 90.0501 108.751 90.1215 108.358 90.1127C107.982 90.1043 107.612 90.0791 107.245 90.0447C106.547 91.8262 105.942 93.643 105.19 95.4035C105.004 95.8399 103.782 95.9196 104.041 95.314C104.801 93.535 105.41 91.6968 106.117 89.8972C104.572 89.6398 103.091 89.1573 101.635 88.4832C101.627 88.4824 101.618 88.4832 101.609 88.4824C98.0602 88.083 95.07 92.8429 93.7959 95.5463C92.8749 97.5017 91.2966 101.559 92.9353 103.592C93.1365 103.548 93.3301 103.547 93.4292 103.628C98.5113 107.83 105.658 110.497 112.546 110.419C112.105 109.953 111.708 109.424 111.378 108.855C111.342 108.861 111.307 108.864 111.274 108.864C110.577 108.864 109.88 108.864 109.183 108.864C108.964 108.864 108.584 108.812 108.63 108.499C108.671 108.22 109.05 108.027 109.305 108.027C109.856 108.027 110.407 108.027 110.958 108.027C110.656 107.326 110.465 106.587 110.431 105.85C110.137 105.821 109.96 105.709 110.373 105.508C111.001 105.202 111.649 104.961 112.307 104.75C112.112 104.22 111.952 103.674 111.771 103.155C111.618 102.719 112.827 102.37 112.988 102.829C113.151 103.293 113.293 103.782 113.461 104.26C113.477 104.305 113.495 104.351 113.512 104.396C114.069 104.246 114.63 104.106 115.188 103.96C115.146 103.87 115.106 103.78 115.065 103.69C114.796 103.104 114.532 102.515 114.308 101.908C114.191 101.589 115.392 101.222 115.525 101.583C115.758 102.212 116.032 102.823 116.312 103.431C116.341 103.496 116.372 103.563 116.402 103.627C116.907 103.479 117.408 103.317 117.9 103.128C118.232 103 118.559 102.861 118.882 102.704C118.907 102.692 118.936 102.682 118.967 102.672C119.163 102.387 120.022 102.183 120.153 102.517C120.362 103.05 120.615 103.56 120.884 104.061C121.417 103.774 121.953 103.492 122.464 103.168C122.804 102.953 123.887 103.002 123.195 103.44C122.541 103.854 121.842 104.193 121.169 104.573C121.458 105.083 121.759 105.586 122.051 106.095C122.237 105.997 122.424 105.899 122.61 105.803C122.852 105.676 123.199 105.567 123.469 105.676C123.732 105.781 123.499 106.022 123.349 106.101C123.014 106.275 122.68 106.45 122.346 106.625C122.562 107.019 122.763 107.423 122.946 107.835C122.948 107.839 122.949 107.842 122.951 107.845C123.046 107.798 123.138 107.749 123.232 107.701C124.308 107.14 125.349 106.514 126.356 105.831C126.391 105.807 126.426 105.783 126.461 105.759C132.122 101.894 136.774 96.3203 141.275 91.3638C141.5 91.116 142.699 90.9921 142.392 91.3294C138.026 96.1368 133.276 101.916 127.619 105.868C128.526 107.729 128.879 109.704 128.973 111.743C136.257 111.63 143.538 111.514 150.821 111.391C156.107 111.304 161.391 111.214 166.675 111.11ZM135.685 87.2493C135.762 87.5349 135.404 87.7457 135.181 87.8028C135.12 87.8184 135.056 87.8314 134.994 87.847C134.904 88.9952 134.807 90.1455 134.79 91.2995C134.783 91.7212 133.568 91.9219 133.573 91.6259C133.574 91.5759 133.577 91.5267 133.578 91.4768C133.111 91.6359 132.642 91.7661 132.173 91.8745C132.23 92.1525 132.302 92.4288 132.401 92.7022C132.535 93.0706 131.33 93.4305 131.184 93.0286C131.079 92.7396 131.006 92.4477 130.948 92.1533C130.945 92.1386 130.943 92.1239 130.94 92.1084C130.584 92.1626 130.228 92.2058 129.87 92.2411C129.868 92.3192 129.868 92.3978 129.867 92.4759C129.865 92.6342 129.863 92.7925 129.863 92.9509C129.863 93.3767 128.643 93.6283 128.644 93.092C128.644 92.887 128.645 92.6808 128.648 92.4759C128.649 92.4276 128.651 92.3793 128.652 92.3306C128.479 92.339 128.306 92.3461 128.133 92.352C127.189 92.3847 126.235 92.3822 125.271 92.3789C124.685 92.3772 125 92.0752 125.368 91.9064C125.363 91.885 125.358 91.8636 125.358 91.8409C125.354 90.7599 125.324 89.6797 125.293 88.5991C125.089 88.5991 124.884 88.5991 124.68 88.5991C124.441 88.5991 124.418 88.4467 124.607 88.3261C124.805 88.1997 125.043 88.1309 125.28 88.1073C125.247 86.9629 125.214 85.8189 125.209 84.6737C125.209 84.5884 125.253 84.5103 125.323 84.4439C125.001 84.2415 125.615 83.7245 126.048 83.7623C127.203 83.8631 128.344 83.7968 129.481 83.6657C129.431 83.3654 129.399 83.0605 129.393 82.7464C129.386 82.3806 130.606 82.187 130.61 82.4209C130.617 82.7909 130.658 83.1492 130.726 83.5003C131.852 83.3323 132.975 83.1319 134.106 82.9883C134.177 82.9795 134.237 82.9786 134.292 82.9807C134.636 82.8585 135.071 82.8493 135.088 83.0421C135.206 84.3675 135.15 85.6866 135.058 87.0049C135.286 86.9692 135.617 86.9944 135.685 87.2493ZM133.595 90.9333C133.601 90.7863 133.604 90.6389 133.612 90.4919C133.655 89.6856 133.721 88.8809 133.784 88.0754C133.498 88.1124 133.213 88.1393 132.924 88.1434C132.705 88.1468 132.325 88.0876 132.371 87.7777C132.412 87.4946 132.79 87.3086 133.046 87.3044C133.316 87.3002 133.581 87.2766 133.844 87.2414C133.871 86.8491 133.892 86.4564 133.909 86.0633C133.94 85.2914 133.941 84.5187 133.891 83.7447C133.842 83.7514 133.793 83.7585 133.743 83.7653C133.38 83.8136 133.017 83.8652 132.654 83.9211C132.433 83.9547 132.211 83.9883 131.991 84.0235C131.625 84.0811 131.26 84.1382 130.895 84.194C131.017 84.5951 131.17 84.989 131.353 85.3792C131.462 85.6114 130.285 86.0239 130.136 85.7055C129.931 85.2658 129.761 84.8227 129.636 84.37C128.573 84.5052 127.507 84.5884 126.43 84.5594C126.434 85.446 126.456 86.3338 126.479 87.2204C126.488 87.5085 126.494 87.797 126.504 88.0859C126.504 88.0884 126.504 88.0926 126.504 88.0947C126.755 88.0947 127.006 88.0947 127.257 88.0947C127.496 88.0947 127.519 88.2472 127.331 88.3669C127.094 88.5176 126.797 88.5874 126.517 88.5949C126.539 89.3601 126.557 90.1261 126.567 90.8926C126.571 91.1639 126.578 91.4364 126.579 91.7077C126.579 91.738 126.572 91.7678 126.562 91.7955C126.768 91.7972 126.974 91.798 127.179 91.798C127.677 91.7989 128.172 91.7947 128.667 91.7791C128.687 91.3327 128.725 90.8876 128.792 90.442C128.857 90.0031 130.088 89.7931 130.011 90.3008C129.941 90.77 129.904 91.2407 129.884 91.7115C130.21 91.6851 130.537 91.6502 130.861 91.6049C130.819 91.1744 130.824 90.7384 130.885 90.2975C130.938 89.9094 132.16 89.6814 132.099 90.1316C132.041 90.5558 132.041 90.9715 132.088 91.3827C132.144 91.3697 132.201 91.3541 132.257 91.3399C132.676 91.2365 133.093 91.1118 133.507 90.9577C133.536 90.9497 133.565 90.9413 133.595 90.9333Z" fill="#175CD3"/>
</svg>
